<svg xmlns="http://www.w3.org/2000/svg" width="100" height="55" fill="none" viewBox="0 0 100 55">
  <path fill="#fff" d="M19.255 7.74c0 2.773-1.2 4.88-3.6 6.32 1.306.48 2.4 1.307 3.28 2.48.88 1.173 1.32 2.84 1.32 5 0 2.133-.8 3.827-2.4 5.08-1.574 1.253-3.84 1.88-6.8 1.88h-9.44c-.454 0-.827-.147-1.12-.44-.294-.32-.44-.733-.44-1.24V1.22c0-.293.04-.48.12-.56C.28.553.48.5.775.5h9.12c6.24 0 9.36 2.413 9.36 7.24Zm-11.52-.76v5.24h.2c2.56 0 3.84-.853 3.84-2.56 0-.933-.254-1.613-.76-2.04-.48-.427-1.294-.64-2.44-.64h-.84Zm0 9.96v5.2h.72c1.146 0 1.986-.213 2.52-.64.533-.427.8-1.107.8-2.04s-.254-1.587-.76-1.96c-.48-.373-1.294-.56-2.44-.56h-.84Zm17.15 9.2c-1.654-1.84-2.48-4.387-2.48-7.64s.826-5.8 2.48-7.64c1.68-1.84 3.933-2.76 6.76-2.76 2.826 0 5.066.92 6.72 2.76 1.653 1.84 2.48 4.387 2.48 7.64s-.827 5.8-2.48 7.64c-1.654 1.84-3.894 2.76-6.72 2.76-2.827 0-5.08-.92-6.76-2.76Zm6.76-11.36c-1.494 0-2.24 1.227-2.24 3.68 0 2.453.746 3.68 2.24 3.68 1.52 0 2.28-1.227 2.28-3.68 0-2.453-.76-3.68-2.28-3.68Zm13.748 11.36c-1.654-1.84-2.48-4.387-2.48-7.64s.826-5.8 2.48-7.64c1.68-1.84 3.933-2.76 6.76-2.76 2.826 0 5.066.92 6.72 2.76 1.653 1.84 2.48 4.387 2.48 7.64s-.827 5.8-2.48 7.64c-1.654 1.84-3.894 2.76-6.72 2.76-2.827 0-5.08-.92-6.76-2.76Zm6.76-11.36c-1.494 0-2.24 1.227-2.24 3.68 0 2.453.746 3.68 2.24 3.68 1.52 0 2.28-1.227 2.28-3.68 0-2.453-.76-3.68-2.28-3.68ZM64.18.82c0-.427 1.214-.64 3.64-.64 2.267.08 3.4.253 3.4.52v15.36l3.96-7.32c.187-.4 1.32-.6 3.4-.6s3.414.133 4 .4l-5.2 8.48 6 11.24c.054.107-.453.187-1.52.24-1.04.08-1.906.12-2.6.12-2.56 0-3.933-.12-4.12-.36l-3.96-8.88v8.84c0 .347-1.173.52-3.52.52-2.32 0-3.48-.16-3.48-.48V.82Zm27.354 27.758c-.528 0-.918-.139-1.17-.416-.242-.286-.364-.637-.364-1.053 0-.182.022-.386.065-.611.044-.234.087-.46.13-.676.052-.217.087-.355.104-.416.07-.303.135-.602.195-.897.061-.295.091-.533.091-.715 0-.442-.156-.663-.468-.663-.225 0-.424.113-.598.338-.173.217-.312.503-.416.858L88.22 28.5h-1.872l.95-4.485c.025-.104.038-.212.038-.325 0-.381-.13-.572-.39-.572-.242 0-.455.113-.637.338-.173.217-.312.507-.416.871l-.884 4.173h-1.872l1.378-6.5h1.872l-.143.676c.442-.494.971-.741 1.586-.741.763 0 1.21.373 1.34 1.118.476-.737 1.078-1.105 1.806-1.105.442 0 .793.121 1.053.364.26.243.39.611.39 1.105 0 .251-.03.533-.09.845-.061.303-.148.676-.26 1.118-.07.269-.135.533-.196.793a3.12 3.12 0 0 0-.078.598c0 .173.04.308.117.403.078.095.213.143.403.143a.78.78 0 0 0 .624-.273c.156-.19.312-.481.468-.871h.546c-.32.953-.693 1.595-1.118 1.924-.416.32-.849.481-1.3.481Zm3.9 3.172c-.408 0-.767-.134-1.08-.403a1.258 1.258 0 0 1-.454-1.001c0-.381.095-.693.286-.936.19-.243.437-.433.74-.572.304-.139.711-.286 1.223-.442l.13-.572c-.442.503-.97.754-1.586.754-.416 0-.754-.13-1.014-.39-.252-.26-.377-.65-.377-1.17 0-.217.034-.498.104-.845L94.29 22h1.872l-.936 4.42a1.335 1.335 0 0 0-.04.325c0 .381.13.572.39.572a.8.8 0 0 0 .625-.299c.173-.208.312-.49.416-.845L97.5 22h1.885L97.8 29.54c-.174.832-.481 1.408-.923 1.729a2.37 2.37 0 0 1-1.443.481Zm-.3-1.157c.157 0 .304-.082.443-.247.138-.156.247-.412.325-.767l.156-.767c-.46.156-.815.338-1.066.546a.998.998 0 0 0-.377.806c0 .104.052.2.156.286a.522.522 0 0 0 .364.143ZM.725 52.89v-21c0-.583.14-1.038.42-1.365A1.46 1.46 0 0 1 2.3 30h5.845c3.71 0 6.521.933 8.435 2.8 1.936 1.867 2.905 4.807 2.905 8.82 0 8.587-3.664 12.88-10.99 12.88H2.509c-1.19 0-1.785-.537-1.785-1.61Zm6.72-16.24v10.465c0 .49.035.805.105.945.07.117.28.175.63.175 1.283 0 2.251-.478 2.905-1.435.676-.957 1.015-2.543 1.015-4.76 0-2.24-.35-3.698-1.05-4.375-.677-.677-1.762-1.015-3.255-1.015h-.35ZM23.62 52.435c-1.447-1.61-2.17-3.838-2.17-6.685 0-2.847.723-5.075 2.17-6.685 1.47-1.61 3.442-2.415 5.915-2.415s4.433.805 5.88 2.415c1.447 1.61 2.17 3.838 2.17 6.685 0 2.847-.723 5.075-2.17 6.685-1.447 1.61-3.407 2.415-5.88 2.415s-4.445-.805-5.915-2.415Zm5.915-9.94c-1.307 0-1.96 1.073-1.96 3.22 0 2.147.653 3.22 1.96 3.22 1.33 0 1.995-1.073 1.995-3.22 0-2.147-.665-3.22-1.995-3.22ZM45.8 45.82c0 2.287.864 3.43 2.59 3.43 1.12 0 2.054-.222 2.8-.665.35 0 .63.607.84 1.82.234 1.19.35 2.007.35 2.45 0 .42-.058.7-.175.84-1.236.77-2.928 1.155-5.075 1.155-2.146 0-3.978-.793-5.495-2.38-1.493-1.61-2.24-3.792-2.24-6.545 0-2.777.735-5.017 2.205-6.72 1.494-1.703 3.465-2.555 5.915-2.555 2.474 0 4.189.595 5.145 1.785.21.257.315.642.315 1.155 0 .49-.093 1.097-.28 1.82-.42 1.493-.968 2.357-1.645 2.59a1.868 1.868 0 0 1-.42.035c-.163 0-.373-.14-.63-.42-.91-.91-1.645-1.365-2.205-1.365-.536 0-1.003.28-1.4.84-.396.56-.595 1.47-.595 2.73Zm17.144 8.47c0 .28-.98.42-2.94.42-2.333-.093-3.5-.245-3.5-.455v-12.39H54.72c-.466 0-.7-.805-.7-2.415 0-.42.035-.933.105-1.54.094-.607.269-.91.525-.91h1.855v-3.08c0-.467.98-.7 2.94-.7 1.984 0 2.975.187 2.975.56v2.24l.035.98h2.975c.397 0 .595.817.595 2.45 0 1.633-.198 2.45-.595 2.45h-2.485v12.39Zm6.341-1.855c-1.447-1.61-2.17-3.838-2.17-6.685 0-2.847.723-5.075 2.17-6.685 1.47-1.61 3.442-2.415 5.915-2.415s4.433.805 5.88 2.415c1.447 1.61 2.17 3.838 2.17 6.685 0 2.847-.723 5.075-2.17 6.685-1.447 1.61-3.407 2.415-5.88 2.415s-4.445-.805-5.915-2.415Zm5.915-9.94c-1.307 0-1.96 1.073-1.96 3.22 0 2.147.653 3.22 1.96 3.22 1.33 0 1.995-1.073 1.995-3.22 0-2.147-.665-3.22-1.995-3.22Zm18.19 11.97c0 .163-1.062.245-3.186.245-2.123-.047-3.185-.14-3.185-.28V42.81h-.945c-.373 0-.676-.222-.91-.665-.21-.467-.315-1.038-.315-1.715 0-2.52.747-3.78 2.24-3.78 1.05 0 1.925.327 2.625.98.7.63 1.05 1.353 1.05 2.17.49-.957 1.144-1.715 1.96-2.275.84-.583 1.692-.875 2.555-.875 1.354 0 2.17.35 2.45 1.05.07.187.105.467.105.84 0 .35-.116.992-.35 1.925-.21.933-.431 1.61-.665 2.03-.233.42-.373.63-.42.63-.046 0-.268-.082-.665-.245-.373-.187-.711-.28-1.015-.28-.886 0-1.33.7-1.33 2.1v9.765Z"/>
</svg>
