<svg xmlns="http://www.w3.org/2000/svg" width="179" height="95" fill="none" viewBox="0 0 179 95">
  <path fill="#00AED6" d="M31.997 12.784c0 4.437-1.92 7.808-5.76 10.112 2.09.768 3.84 2.09 5.248 3.968 1.408 1.877 2.112 4.544 2.112 8 0 3.413-1.28 6.123-3.84 8.128C27.24 44.997 23.613 46 18.877 46H3.773c-.725 0-1.323-.235-1.792-.704-.47-.512-.704-1.173-.704-1.984V2.352c0-.47.064-.768.192-.896.17-.17.49-.256.96-.256h14.592c9.984 0 14.976 3.861 14.976 11.584Zm-18.432-1.216v8.384h.32c4.096 0 6.144-1.365 6.144-4.096 0-1.493-.405-2.581-1.216-3.264-.768-.683-2.07-1.024-3.904-1.024h-1.344Zm0 15.936v8.32h1.152c1.835 0 3.179-.341 4.032-1.024.853-.683 1.28-1.77 1.28-3.264 0-1.493-.405-2.539-1.216-3.136-.768-.597-2.07-.896-3.904-.896h-1.344Zm27.44 14.72C38.36 39.28 37.037 35.205 37.037 30s1.323-9.28 3.968-12.224c2.688-2.944 6.293-4.416 10.816-4.416 4.523 0 8.107 1.472 10.752 4.416 2.645 2.944 3.968 7.019 3.968 12.224s-1.323 9.28-3.968 12.224c-2.645 2.944-6.23 4.416-10.752 4.416-4.523 0-8.128-1.472-10.816-4.416Zm10.816-18.176c-2.39 0-3.584 1.963-3.584 5.888s1.195 5.888 3.584 5.888c2.432 0 3.648-1.963 3.648-5.888s-1.216-5.888-3.648-5.888Zm21.996 18.176C71.172 39.28 69.85 35.205 69.85 30s1.322-9.28 3.968-12.224c2.688-2.944 6.293-4.416 10.816-4.416 4.522 0 8.106 1.472 10.751 4.416 2.646 2.944 3.968 7.019 3.968 12.224s-1.322 9.28-3.968 12.224c-2.645 2.944-6.229 4.416-10.752 4.416-4.522 0-8.127-1.472-10.816-4.416Zm10.817-18.176c-2.39 0-3.585 1.963-3.585 5.888s1.195 5.888 3.584 5.888c2.433 0 3.648-1.963 3.648-5.888s-1.216-5.888-3.648-5.888Zm19.244-22.336c0-.683 1.941-1.024 5.824-1.024 3.627.128 5.44.405 5.44.832v24.576l6.336-11.712c.299-.64 2.112-.96 5.44-.96 3.328 0 5.461.213 6.4.64l-8.32 13.568 9.6 17.984c.085.17-.725.299-2.432.384-1.664.128-3.051.192-4.16.192-4.096 0-6.293-.192-6.592-.576l-6.336-14.208v14.144c0 .555-1.877.832-5.632.832-3.712 0-5.568-.256-5.568-.768V1.712ZM.638 91.056v-38.4c0-1.067.255-1.899.767-2.496.555-.64 1.26-.96 2.112-.96h10.689c6.784 0 11.925 1.707 15.424 5.12 3.54 3.413 5.311 8.79 5.311 16.128C34.941 86.149 28.243 94 14.845 94H3.902c-2.175 0-3.263-.981-3.263-2.944ZM12.925 61.36v19.136c0 .896.064 1.472.192 1.728.128.213.512.32 1.152.32 2.347 0 4.118-.875 5.312-2.624 1.238-1.75 1.857-4.65 1.857-8.704 0-4.096-.64-6.763-1.92-8-1.238-1.237-3.222-1.856-5.953-1.856h-.64Zm29.582 28.864C39.862 87.28 38.539 83.205 38.539 78s1.323-9.28 3.968-12.224c2.688-2.944 6.293-4.416 10.816-4.416 4.523 0 8.107 1.472 10.752 4.416C66.72 68.72 68.043 72.795 68.043 78s-1.323 9.28-3.968 12.224c-2.645 2.944-6.23 4.416-10.752 4.416-4.523 0-8.128-1.472-10.816-4.416Zm10.816-18.176c-2.39 0-3.584 1.963-3.584 5.888s1.195 5.888 3.584 5.888c2.432 0 3.648-1.963 3.648-5.888s-1.216-5.888-3.648-5.888Zm29.74 6.08c0 4.181 1.58 6.272 4.736 6.272 2.048 0 3.755-.405 5.12-1.216.64 0 1.153 1.11 1.537 3.328.426 2.176.64 3.67.64 4.48 0 .768-.107 1.28-.32 1.536-2.262 1.408-5.355 2.112-9.28 2.112-3.926 0-7.275-1.45-10.048-4.352-2.731-2.944-4.096-6.933-4.096-11.968 0-5.077 1.343-9.173 4.031-12.288 2.731-3.115 6.337-4.672 10.817-4.672 4.522 0 7.658 1.088 9.407 3.264.385.47.576 1.173.576 2.112 0 .896-.17 2.005-.512 3.328-.768 2.73-1.77 4.31-3.008 4.736-.17.043-.426.064-.767.064-.3 0-.683-.256-1.153-.768-1.663-1.664-3.007-2.496-4.031-2.496-.982 0-1.835.512-2.56 1.536-.726 1.024-1.088 2.688-1.088 4.992Zm31.35 15.488c0 .512-1.792.768-5.376.768-4.267-.17-6.4-.448-6.4-.832V70.896h-3.264c-.854 0-1.28-1.472-1.28-4.416 0-.768.063-1.707.191-2.816.171-1.11.491-1.664.96-1.664h3.393v-5.632c0-.853 1.792-1.28 5.376-1.28 3.626 0 5.44.341 5.44 1.024v4.096l.064 1.792h5.44c.725 0 1.088 1.493 1.088 4.48s-.363 4.48-1.088 4.48h-4.544v22.656Zm11.594-3.392c-2.645-2.944-3.968-7.019-3.968-12.224s1.323-9.28 3.968-12.224c2.688-2.944 6.293-4.416 10.816-4.416 4.523 0 8.107 1.472 10.752 4.416 2.645 2.944 3.968 7.019 3.968 12.224s-1.323 9.28-3.968 12.224c-2.645 2.944-6.229 4.416-10.752 4.416-4.523 0-8.128-1.472-10.816-4.416Zm10.816-18.176c-2.389 0-3.584 1.963-3.584 5.888s1.195 5.888 3.584 5.888c2.432 0 3.648-1.963 3.648-5.888s-1.216-5.888-3.648-5.888Zm33.26 21.888c0 .299-1.941.448-5.823.448-3.883-.085-5.824-.256-5.824-.512V72.624h-1.728c-.683 0-1.238-.405-1.664-1.216-.384-.853-.576-1.899-.576-3.136 0-4.608 1.365-6.912 4.096-6.912 1.92 0 3.52.597 4.8 1.792 1.28 1.152 1.92 2.475 1.92 3.968.896-1.75 2.09-3.136 3.584-4.16 1.536-1.067 3.093-1.6 4.672-1.6 2.474 0 3.968.64 4.48 1.92.128.341.192.853.192 1.536 0 .64-.214 1.813-.64 3.52-.384 1.707-.79 2.944-1.216 3.712-.427.768-.683 1.152-.768 1.152-.086 0-.491-.15-1.216-.448-.683-.341-1.302-.512-1.856-.512-1.622 0-2.433 1.28-2.433 3.84v17.856Z"/>
  <path fill="#00D0FF" d="M156.886 46.216c-1.464 0-2.544-.384-3.24-1.152-.672-.792-1.008-1.764-1.008-2.916 0-.504.06-1.068.18-1.692.12-.648.24-1.272.36-1.872.144-.6.24-.984.288-1.152.192-.84.372-1.668.54-2.484.168-.816.252-1.476.252-1.98 0-1.224-.432-1.836-1.296-1.836-.624 0-1.176.312-1.656.936-.48.6-.864 1.392-1.152 2.376L147.706 46h-5.184l2.628-12.42c.072-.288.108-.588.108-.9 0-1.056-.36-1.584-1.08-1.584-.672 0-1.26.312-1.764.936-.48.6-.864 1.404-1.152 2.412L138.814 46h-5.184l3.816-18h5.184l-.396 1.872c1.224-1.368 2.688-2.052 4.392-2.052 2.112 0 3.348 1.032 3.708 3.096 1.32-2.04 2.988-3.06 5.004-3.06 1.224 0 2.196.336 2.916 1.008.72.672 1.08 1.692 1.08 3.06 0 .696-.084 1.476-.252 2.34-.168.84-.408 1.872-.72 3.096a96.99 96.99 0 0 0-.54 2.196c-.144.696-.216 1.248-.216 1.656 0 .48.108.852.324 1.116.216.264.588.396 1.116.396.72 0 1.296-.252 1.728-.756.432-.528.864-1.332 1.296-2.412h1.512c-.888 2.64-1.92 4.416-3.096 5.328-1.152.888-2.352 1.332-3.6 1.332ZM167.684 55c-1.128 0-2.124-.372-2.988-1.116-.84-.72-1.26-1.644-1.26-2.772 0-1.056.264-1.92.792-2.592.528-.672 1.212-1.2 2.052-1.584.84-.384 1.968-.792 3.384-1.224l.36-1.584c-1.224 1.392-2.688 2.088-4.392 2.088-1.152 0-2.088-.36-2.808-1.08-.696-.72-1.044-1.8-1.044-3.24 0-.6.096-1.38.288-2.34L164.516 28h5.184l-2.592 12.24a3.697 3.697 0 0 0-.108.9c0 1.056.36 1.584 1.08 1.584.672 0 1.248-.276 1.728-.828.48-.576.864-1.356 1.152-2.34L173.408 28h5.22l-4.392 20.88c-.48 2.304-1.332 3.9-2.556 4.788-1.2.888-2.532 1.332-3.996 1.332Zm-.828-3.204c.432 0 .84-.228 1.224-.684.384-.432.684-1.14.9-2.124l.432-2.124c-1.272.432-2.256.936-2.952 1.512-.696.576-1.044 1.32-1.044 2.232 0 .288.144.552.432.792.288.264.624.396 1.008.396Z"/>
</svg>
